<?xml version="1.0" encoding="utf-8"?>
<!-- Generator: Adobe Illustrator 27.0.1, SVG Export Plug-In . SVG Version: 6.00 Build 0)  -->
<svg version="1.1" id="Layer_1" xmlns="http://www.w3.org/2000/svg" xmlns:xlink="http://www.w3.org/1999/xlink" x="0px" y="0px"
	 viewBox="0 0 146 146" style="enable-background:new 0 0 146 146;" xml:space="preserve">
<style type="text/css">
	.st0{fill:#FFFFFF;}
	.st1{fill:#E2001C;}
	.st2{fill:#FAD800;}
</style>
<circle cx="73" cy="74.4" r="71.6"/>
<g>
	<g>
		<g>
			<path class="st0" d="M115.4,113c0-0.2-0.1-0.3-0.1-0.5c-0.8-3.7-4.8-6.4-7.9-8c-1.4-0.7-3-1.4-4-2.6c-0.9-1.1-1.4-3.1-0.4-4.2
				c1-1.2,3.3-1.4,4.8-1.4h2.1c0,0,0-3.9,0-3.9c0-0.2-2.6-0.3-2.8-0.3c-1.9-0.1-3.9,0.1-5.8,0.8c-4.6,1.8-6.2,7.6-3.5,11.7
				c0,0,0.1,0.1,0.1,0.1c1.3,1.9,3.2,3.2,5.2,4.4c1.6,0.9,4.3,1.9,5.5,3.4c0.3,0.4,0.4,0.9,0.5,1.5c0.2,2.3-0.9,3.9-3.1,4.5
				c-3,0.8-6.1-0.2-8.9-1.3c-0.2-0.1-0.5-0.3-0.9-0.5c0.8-2.9,0.4-6.3-1.6-8.6c-0.6-0.7-1.4-1.2-2.2-1.5c0.1,0.1,1.1-1.2,1.1-1.3
				c0.8-1.1,1.4-2.3,1.7-3.6c0.9-4.1-2.9-8.6-7-8.6L76,92.9v11.8h-2.6v-1.4c0-6.1-4.9-11-11-11h-0.6c-6.1,0-11,4.9-11,11v1.4h-2.9
				c0-2.4,0-4.7,0-7.1c0-1.8,0-3.6,0-5.3H35.6v5h6.1c0,0,0,16.4,0,16.5c0,6.5-8.4,4.9-12.4,4c0.1,0,0,4.5,0,5c0,0.3,4.4,0.6,4.7,0.7
				c3.2,0.2,6.7,0.3,9.5-1.6c4.2-2.8,4.3-7.1,4.3-11.5c0-0.2,0-0.4,0-0.6h2.9v3.6c0,6.1,4.9,11,11,11h0.6c6.1,0,11-4.9,11-11v-3.6
				H76v13.6c2.1,0,4.3,0,6.4,0c3.7,0,8,0.1,10.9-2.3c0.6,0.4,1.3,0.8,1.5,0.9c4.8,2.4,12.3,3,16.9-0.1
				C114.6,119.7,116.1,116.5,115.4,113z M67.5,114c0,2.9-2.4,5.3-5.3,5.3h-0.1c-2.9,0-5.3-2.4-5.3-5.3v-11.4c0-2.9,2.4-5.3,5.3-5.3
				h0.1c2.9,0,5.3,2.4,5.3,5.3V114z M82.3,97.7h3.5c1.9,0,3.5,1.6,3.5,3.5v0c0,1.9-1.6,3.5-3.5,3.5h-3.5V97.7z M86,118.5h-3.8v-8.9
				H86c2.5,0,4.4,2,4.4,4.4S88.5,118.5,86,118.5z"/>
		</g>
	</g>
	<circle class="st0" cx="44.8" cy="87.8" r="3.4"/>
</g>
<g>
	<path class="st0" d="M73.6,71.5c1.5,2.2,2.6,3.3,4.2,3.3c1.7,0,2.5-1.7,2.5-5.2V19.6H74v37.9L55.3,22.4c-1.1-2.2-2.2-2.8-3.6-2.8
		c-2,0-3.2,1.9-3.2,4.8v49.8h6.4V36.3L73.6,71.5z"/>
	<path class="st1" d="M99.1,71.8c0.9,2,2.3,2.8,3.8,2.8c1.7,0,2.8-1.8,2.8-4.7V19.6h-6.6v36.9L82.6,19.6h-7.9L99.1,71.8z"/>
	<polygon class="st2" points="82.6,19.6 99.1,19.6 99.1,59.9 	"/>
	<path class="st2" d="M46.1,58.8c0.3-0.2,0.4-0.5,0.4-0.9c0-0.4-0.2-0.7-0.6-0.7H42l4.1-2.7c0.3-0.2,0.4-0.5,0.4-0.9
		c0-0.4-0.2-0.7-0.6-0.7h-6.6v1.6h4.3c-1.4,0.9-2.5,1.6-3.9,2.5c-0.3,0.2-0.4,0.5-0.4,0.9c0,0.5,0.3,1,0.8,1h3.5l-4.3,2.7v1.8
		L46.1,58.8z M45.2,63.3v2.3h-1.8v-1.9h-1.2v1.9h-1.7v-2.2h-1.2v3.9h7.2v-3.9H45.2z M46,69.7c0.4-0.3,0.5-0.6,0.5-1
		c0-0.4-0.2-0.7-0.7-0.7h-6.5v1.6h4.5l-4.2,3.2c-0.3,0.2-0.4,0.5-0.4,0.8c0,0.5,0.2,0.8,0.6,0.8h6.5v-1.6h-4.5L46,69.7z"/>
	<path class="st0" d="M46,21.9c0.4-0.3,0.5-0.6,0.5-1c0-0.4-0.2-0.7-0.7-0.7h-6.5v1.6h4.5L39.6,25c-0.3,0.2-0.4,0.5-0.4,0.8
		c0,0.5,0.2,0.8,0.6,0.8h6.5V25h-4.5L46,21.9z M40.5,31c0-1.3,1-2.2,2.4-2.2c1.3,0,2.3,0.9,2.3,2.2v0.2c0,1.3-1,2.2-2.3,2.2
		c-1.4,0-2.4-0.9-2.4-2.2V31z M46.4,31c0-2.2-1.6-3.8-3.7-3.8c-2,0-3.5,1.5-3.5,3.8v0.2c0,2.3,1.5,3.8,3.5,3.8
		c2.1,0,3.7-1.6,3.7-3.8V31z M46.4,37.3v-1.6h-7.2v1.6H46.4z M46.4,40.6c0-1.6-0.9-2.6-2.2-2.6c-1.3,0-2.2,1-2.2,2.4v0.7
		c0,0.4-0.3,0.7-0.8,0.7c-0.4,0-0.7-0.3-0.7-0.7v-2.6h-1.2V41c0,1.4,0.9,2.4,2,2.4c1.1,0,1.9-1,1.9-2.2v-0.6c0-0.7,0.4-1.1,1-1.1
		c0.6,0,1,0.5,1,1.1v2.7h1.2V40.6z M46.4,45.7v-1.6h-7.2v1.6H46.4z M46.1,48.1c0.3-0.2,0.4-0.5,0.4-0.9c0-0.4-0.2-0.7-0.6-0.7h-6.6
		v1.6h4.3l-4.3,2.7v1.8L46.1,48.1z"/>
</g>
</svg>
