<?xml version="1.0" encoding="utf-8"?>
<!-- Generator: Adobe Illustrator 27.0.1, SVG Export Plug-In . SVG Version: 6.00 Build 0)  -->
<svg version="1.1" id="Layer_1" xmlns="http://www.w3.org/2000/svg" xmlns:xlink="http://www.w3.org/1999/xlink" x="0px" y="0px"
	 viewBox="0 0 146 146" style="enable-background:new 0 0 146 146;" xml:space="preserve">
<style type="text/css">
	.st0{opacity:0.1;fill:none;stroke:#FFFFFF;enable-background:new    ;}
	.st1{fill:#FFFFFF;}
	.st2{fill:#E2001C;}
	.st3{fill:#FAD800;}
</style>
<circle class="st0" cx="73" cy="73" r="72.5"/>
<circle cx="73" cy="76" r="70"/>
<g>
	<g>
		<g>
			<path class="st1" d="M114.5,113.7c0-0.2-0.1-0.3-0.1-0.5c-0.8-3.6-4.7-6.3-7.7-7.9c-1.4-0.7-2.9-1.4-3.9-2.6
				c-0.9-1.1-1.4-3-0.4-4.1c1-1.2,3.3-1.4,4.7-1.4h2c0,0,0-3.9,0-3.9c0-0.2-2.5-0.3-2.7-0.3c-1.9-0.1-3.8,0.1-5.6,0.7
				c-4.5,1.7-6,7.4-3.5,11.5c0,0,0.1,0.1,0.1,0.1c1.2,1.9,3.2,3.1,5,4.3c1.6,0.9,4.3,1.9,5.3,3.4c0.3,0.4,0.4,0.9,0.5,1.4
				c0.2,2.2-0.9,3.9-3,4.4c-2.9,0.7-5.9-0.2-8.7-1.2c-0.2-0.1-0.5-0.2-0.9-0.5c0.8-2.9,0.4-6.2-1.6-8.4c-0.6-0.6-1.3-1.2-2.2-1.5
				c0.1,0.1,1-1.2,1.1-1.3c0.8-1,1.4-2.2,1.7-3.5c0.8-4-2.8-8.4-6.9-8.4L76,94.1v11.5h-2.6v-1.4c0-5.9-4.8-10.8-10.8-10.8H62
				c-5.9,0-10.8,4.8-10.8,10.8v1.4h-2.9c0-2.3,0-4.6,0-6.9c0-1.7,0-3.5,0-5.2h-12v4.9h6c0,0,0,16.1,0,16.1c0,6.3-8.2,4.8-12.1,3.9
				c0.1,0,0,4.4,0,4.9c0,0.3,4.3,0.6,4.6,0.6c3.2,0.2,6.6,0.2,9.3-1.6c4.1-2.8,4.2-6.9,4.2-11.3c0-0.2,0-0.4,0-0.6h2.9v3.5
				c0,5.9,4.8,10.8,10.8,10.8h0.6c5.9,0,10.8-4.8,10.8-10.8v-3.5H76v13.3c2.1,0,4.2,0,6.3,0c3.7,0,7.8,0.1,10.7-2.3
				c0.6,0.4,1.3,0.8,1.4,0.9c4.7,2.3,12,2.9,16.5-0.1C113.7,120.3,115.1,117.1,114.5,113.7z M67.6,114.7c0,2.8-2.3,5.2-5.2,5.2h-0.1
				c-2.8,0-5.2-2.3-5.2-5.2v-11.2c0-2.8,2.3-5.2,5.2-5.2h0.1c2.8,0,5.2,2.3,5.2,5.2V114.7z M82.1,98.7h3.4c1.9,0,3.4,1.5,3.4,3.4v0
				c0,1.9-1.5,3.4-3.4,3.4h-3.4V98.7z M85.8,119.1h-3.7v-8.7h3.7c2.4,0,4.3,1.9,4.3,4.3S88.2,119.1,85.8,119.1z"/>
		</g>
	</g>
	<circle class="st1" cx="45.4" cy="89.1" r="3.3"/>
</g>
<g>
	<path class="st1" d="M73.6,73.1c1.4,2.2,2.5,3.2,4.1,3.2c1.6,0,2.5-1.7,2.5-5.1V22.4h-6.2v37L55.7,25.1c-1.1-2.1-2.2-2.7-3.5-2.7
		c-2,0-3.1,1.8-3.1,4.7v48.8h6.3v-37L73.6,73.1z"/>
	<path class="st2" d="M98.5,73.4c0.9,2,2.3,2.7,3.7,2.7c1.7,0,2.7-1.8,2.7-4.6V22.4h-6.4v36.1L82.4,22.4h-7.7L98.5,73.4z"/>
	<polygon class="st3" points="82.4,22.4 98.5,22.4 98.5,61.8 	"/>
	<path class="st3" d="M46.7,60.7c0.3-0.2,0.4-0.5,0.4-0.9c0-0.4-0.2-0.7-0.6-0.7h-3.8l4-2.7c0.3-0.2,0.4-0.5,0.4-0.9
		c0-0.4-0.2-0.7-0.6-0.7H40v1.6h4.2c-1.4,0.9-2.4,1.5-3.8,2.4c-0.3,0.2-0.4,0.5-0.4,0.9c0,0.5,0.3,1,0.8,1h3.4L40,63.4v1.8
		L46.7,60.7z M45.8,65.1v2.3H44v-1.9h-1.2v1.9h-1.6v-2.2H40V69h7v-3.8H45.8z M46.5,71.3c0.4-0.3,0.5-0.6,0.5-1
		c0-0.4-0.2-0.6-0.7-0.6H40v1.5h4.4l-4.1,3.1c-0.3,0.2-0.4,0.5-0.4,0.8c0,0.5,0.2,0.8,0.6,0.8H47v-1.5h-4.4L46.5,71.3z"/>
	<path class="st1" d="M46.5,24.6c0.4-0.3,0.5-0.6,0.5-1c0-0.4-0.2-0.6-0.7-0.6H40v1.5h4.4l-4.1,3.1c-0.3,0.2-0.4,0.5-0.4,0.8
		c0,0.5,0.2,0.8,0.6,0.8H47v-1.5h-4.4L46.5,24.6z M41.2,33.5c0-1.2,1-2.1,2.3-2.1c1.3,0,2.3,0.9,2.3,2.1v0.2c0,1.3-0.9,2.1-2.3,2.1
		c-1.4,0-2.3-0.9-2.3-2.1V33.5z M47,33.5c0-2.2-1.6-3.7-3.6-3.7c-2,0-3.4,1.5-3.4,3.7v0.2c0,2.2,1.4,3.7,3.4,3.7s3.6-1.5,3.6-3.7
		V33.5z M47,39.7v-1.6h-7v1.6H47z M47,42.9c0-1.5-0.9-2.6-2.2-2.6s-2.1,1-2.1,2.3v0.7c0,0.4-0.3,0.7-0.8,0.7c-0.4,0-0.7-0.3-0.7-0.7
		v-2.6H40v2.5c0,1.4,0.8,2.4,1.9,2.4c1.1,0,1.9-0.9,1.9-2.2v-0.6c0-0.6,0.4-1.1,1-1.1c0.6,0,1,0.5,1,1.1v2.6H47V42.9z M47,47.9v-1.6
		h-7v1.6H47z M46.7,50.2c0.3-0.2,0.4-0.5,0.4-0.9c0-0.4-0.2-0.7-0.6-0.7H40v1.6h4.2L40,52.9v1.8L46.7,50.2z"/>
</g>
</svg>
