<?xml version="1.0" encoding="utf-8"?>
<!-- Generator: Adobe Illustrator 27.0.1, SVG Export Plug-In . SVG Version: 6.00 Build 0)  -->
<svg version="1.1" id="Layer_1" xmlns="http://www.w3.org/2000/svg" xmlns:xlink="http://www.w3.org/1999/xlink" x="0px" y="0px"
	 viewBox="0 0 146 53" style="enable-background:new 0 0 146 53;" xml:space="preserve">
<style type="text/css">
	.st0{fill:#FFFFFF;}
	.st1{fill:#E2001C;}
	.st2{fill:#FAD800;}
</style>
<rect width="146" height="53"/>
<g>
	<g>
		<g>
			<path class="st0" d="M141.9,33.7c0-0.1,0-0.3-0.1-0.4c-0.7-2.9-3.8-5.1-6.3-6.4c-1.1-0.6-2.4-1.1-3.2-2.1
				c-0.7-0.9-1.2-2.4-0.3-3.4c0.8-0.9,2.7-1.1,3.8-1.1h1.7c0,0,0-3.2,0-3.2c0-0.1-2.1-0.3-2.2-0.3c-1.5-0.1-3.1,0.1-4.6,0.6
				c-3.7,1.4-4.9,6.1-2.8,9.4c0,0,0,0.1,0.1,0.1c1,1.5,2.6,2.6,4.1,3.5c1.3,0.8,3.5,1.5,4.4,2.7c0.2,0.3,0.4,0.8,0.4,1.2
				c0.2,1.8-0.7,3.2-2.5,3.6c-2.4,0.6-4.8-0.2-7.1-1c-0.1-0.1-0.4-0.2-0.7-0.4c0.7-2.3,0.4-5.1-1.3-6.8c-0.5-0.5-1.1-0.9-1.8-1.2
				c0.1,0.1,0.8-0.9,0.9-1c0.6-0.9,1.2-1.8,1.4-2.9c0.7-3.3-2.3-6.8-5.6-6.9l-9.7-0.1v9.4h-2.1v-1.1c0-4.9-3.9-8.8-8.8-8.8H99
				c-4.9,0-8.8,3.9-8.8,8.8v1.1h-2.3c0-1.9,0-3.8,0-5.7c0-1.4,0-2.8,0-4.3H78v4h4.9c0,0,0,13.1,0,13.2c0,5.2-6.7,3.9-9.9,3.2
				c0.1,0,0,3.6,0,4c0,0.3,3.5,0.5,3.8,0.5c2.6,0.1,5.4,0.2,7.6-1.3c3.3-2.3,3.4-5.7,3.4-9.2c0-0.2,0-0.3,0-0.5h2.3v2.8
				c0,4.9,3.9,8.8,8.8,8.8h0.5c4.9,0,8.8-3.9,8.8-8.8V31h2.1v10.9c1.7,0,3.4,0,5.2,0c3,0,6.4,0.1,8.7-1.9c0.5,0.3,1,0.7,1.2,0.7
				c3.8,1.9,9.9,2.4,13.5-0.1C141.3,39.1,142.4,36.5,141.9,33.7z M103.5,34.5c0,2.3-1.9,4.2-4.2,4.2h-0.1c-2.3,0-4.2-1.9-4.2-4.2
				v-9.1c0-2.3,1.9-4.2,4.2-4.2h0.1c2.3,0,4.2,1.9,4.2,4.2V34.5z M115.3,21.4h2.8c1.6,0,2.8,1.3,2.8,2.8v0c0,1.6-1.3,2.8-2.8,2.8
				h-2.8V21.4z M118.4,38.1h-3V31h3c2,0,3.6,1.6,3.6,3.6C121.9,36.5,120.3,38.1,118.4,38.1z"/>
		</g>
	</g>
	<circle class="st0" cx="85.4" cy="13.5" r="2.7"/>
</g>
<g>
	<path class="st0" d="M36.5,46.2c1.2,1.8,2.1,2.6,3.4,2.6c1.3,0,2-1.4,2-4.2V4.7h-5.1V35l-15-28.1C20.9,5.2,20,4.7,19,4.7
		c-1.6,0-2.6,1.5-2.6,3.8v39.9h5.2V18.1L36.5,46.2z"/>
	<path class="st1" d="M56.9,46.4c0.7,1.6,1.8,2.2,3,2.2c1.4,0,2.2-1.5,2.2-3.8V4.7h-5.3v29.5L43.7,4.7h-6.3L56.9,46.4z"/>
	<polygon class="st2" points="43.7,4.7 56.9,4.7 56.9,36.9 	"/>
	<path class="st2" d="M14.5,36.1c0.2-0.1,0.3-0.4,0.3-0.7c0-0.3-0.2-0.6-0.5-0.6h-3.1l3.3-2.2c0.2-0.1,0.3-0.4,0.3-0.7
		c0-0.3-0.2-0.6-0.5-0.6H9v1.3h3.4c-1.1,0.7-2,1.2-3.1,2C9.1,34.8,9,35,9,35.3c0,0.4,0.3,0.8,0.7,0.8h2.8L9,38.3v1.4L14.5,36.1z
		 M13.7,39.7v1.8h-1.4V40h-1v1.6H10v-1.8H9v3.1h5.7v-3.1H13.7z M14.4,44.8c0.3-0.3,0.4-0.5,0.4-0.8c0-0.3-0.2-0.5-0.6-0.5H9v1.2h3.6
		l-3.3,2.5C9.1,47.4,9,47.6,9,47.9c0,0.4,0.2,0.6,0.5,0.6h5.2v-1.3h-3.6L14.4,44.8z"/>
	<path class="st0" d="M14.4,6.5c0.3-0.3,0.4-0.5,0.4-0.8c0-0.3-0.2-0.5-0.6-0.5H9v1.2h3.6L9.3,9C9.1,9.2,9,9.4,9,9.6
		c0,0.4,0.2,0.6,0.5,0.6h5.2V9h-3.6L14.4,6.5z M10,13.8c0-1,0.8-1.7,1.9-1.7c1.1,0,1.8,0.7,1.8,1.7V14c0,1-0.8,1.7-1.8,1.7
		C10.8,15.7,10,15,10,14V13.8z M14.7,13.8c0-1.8-1.3-3-2.9-3c-1.6,0-2.8,1.2-2.8,3V14c0,1.8,1.2,3,2.8,3s2.9-1.3,2.9-3V13.8z
		 M14.7,18.9v-1.3H9v1.3H14.7z M14.7,21.5c0-1.3-0.7-2.1-1.8-2.1c-1,0-1.8,0.8-1.8,1.9v0.6c0,0.3-0.3,0.5-0.6,0.5
		c-0.3,0-0.6-0.2-0.6-0.5v-2.1H9v2.1c0,1.2,0.7,1.9,1.6,1.9c0.9,0,1.6-0.8,1.6-1.8v-0.5c0-0.5,0.3-0.9,0.8-0.9s0.8,0.4,0.8,0.9v2.2
		h1V21.5z M14.7,25.6v-1.3H9v1.3H14.7z M14.5,27.5c0.2-0.1,0.3-0.4,0.3-0.7c0-0.3-0.2-0.6-0.5-0.6H9v1.3h3.4L9,29.7v1.4L14.5,27.5z"
		/>
</g>
</svg>
