<?xml version="1.0" encoding="utf-8"?>
<!-- Generator: Adobe Illustrator 27.0.1, SVG Export Plug-In . SVG Version: 6.00 Build 0)  -->
<svg version="1.1" id="Layer_1" xmlns="http://www.w3.org/2000/svg" xmlns:xlink="http://www.w3.org/1999/xlink" x="0px" y="0px"
	 viewBox="0 0 155 54" style="enable-background:new 0 0 155 54;" xml:space="preserve">
<style type="text/css">
	.st0{fill:#FFFFFF;}
	.st1{fill:#D0232A;}
	.st2{fill:#F5D907;}
</style>
<rect y="-0.9" width="155" height="54.9"/>
<g>
	<g>
		<g>
			<path class="st0" d="M150.6,34.1c0-0.1-0.1-0.3-0.1-0.4c-0.7-3.1-4.1-5.4-6.7-6.8c-1.2-0.6-2.5-1.2-3.4-2.2
				c-0.8-0.9-1.2-2.6-0.3-3.6c0.9-1,2.8-1.2,4.1-1.2h1.8c0,0,0-3.4,0-3.4c0-0.1-2.2-0.3-2.3-0.3c-1.6-0.1-3.3,0.1-4.9,0.6
				c-3.9,1.5-5.3,6.5-3,10c0,0,0,0.1,0.1,0.1c1.1,1.6,2.7,2.7,4.4,3.7c1.4,0.8,3.7,1.6,4.6,2.9c0.3,0.4,0.4,0.8,0.4,1.2
				c0.2,1.9-0.8,3.3-2.6,3.8c-2.5,0.6-5.1-0.2-7.6-1.1c-0.2-0.1-0.4-0.2-0.8-0.4c0.7-2.5,0.4-5.4-1.4-7.3c-0.5-0.6-1.2-1-1.9-1.3
				c0.1,0.1,0.9-1,1-1.1c0.7-0.9,1.2-1.9,1.5-3.1c0.7-3.5-2.4-7.3-6-7.3l-10.3-0.1v10h-2.2v-1.2c0-5.2-4.2-9.4-9.4-9.4h-0.5
				c-5.2,0-9.4,4.2-9.4,9.4v1.2h-2.5c0-2,0-4,0-6c0-1.5,0-3,0-4.5H82.8v4.3H88c0,0,0,14,0,14c0,5.5-7.1,4.2-10.5,3.4
				c0.1,0,0,3.8,0,4.2c0,0.3,3.8,0.5,4,0.6c2.8,0.1,5.7,0.2,8.1-1.4c3.5-2.4,3.6-6,3.6-9.8c0-0.2,0-0.4,0-0.5h2.5v3
				c0,5.2,4.2,9.4,9.4,9.4h0.5c5.2,0,9.4-4.2,9.4-9.4v-3h2.2v11.6c1.8,0,3.6,0,5.5,0c3.2,0,6.8,0.1,9.3-2c0.5,0.4,1.1,0.7,1.2,0.8
				c4,2,10.5,2.5,14.3-0.1C150,39.9,151.2,37.1,150.6,34.1z M109.9,35c0,2.5-2,4.5-4.5,4.5h-0.1c-2.5,0-4.5-2-4.5-4.5v-9.7
				c0-2.5,2-4.5,4.5-4.5h0.1c2.5,0,4.5,2,4.5,4.5V35z M122.5,21.1h3c1.6,0,3,1.3,3,3v0c0,1.6-1.3,3-3,3h-3V21.1z M125.7,38.8h-3.2
				v-7.5h3.2c2.1,0,3.8,1.7,3.8,3.8C129.4,37.2,127.8,38.8,125.7,38.8z"/>
		</g>
	</g>
	<circle class="st0" cx="90.6" cy="12.7" r="2.8"/>
</g>
<g>
	<path class="st0" d="M38.8,47.4c1.2,1.9,2.2,2.8,3.6,2.8c1.4,0,2.1-1.5,2.1-4.5V3.4h-5.4v32.2L23.2,5.7c-1-1.8-1.9-2.4-3-2.4
		c-1.7,0-2.7,1.6-2.7,4v42.3h5.5V17.6L38.8,47.4z"/>
	<path class="st1" d="M60.4,47.7c0.8,1.7,2,2.4,3.2,2.4c1.5,0,2.4-1.5,2.4-4V3.4h-5.6v31.3l-14-31.3h-6.7L60.4,47.7z"/>
	<polygon class="st2" points="46.4,3.4 60.4,3.4 60.4,37.6 	"/>
	<path class="st2" d="M15.4,36.6c0.2-0.1,0.3-0.4,0.3-0.7c0-0.4-0.2-0.6-0.5-0.6h-3.3l3.5-2.3c0.2-0.1,0.3-0.4,0.3-0.7
		c0-0.4-0.2-0.6-0.5-0.6H9.6V33h3.7c-1.2,0.8-2.1,1.3-3.3,2.1c-0.3,0.2-0.4,0.4-0.4,0.7c0,0.5,0.3,0.8,0.7,0.8h3L9.6,39v1.5
		L15.4,36.6z M14.6,40.5v2h-1.5v-1.6H12v1.6h-1.4v-1.9H9.6v3.3h6.1v-3.3H14.6z M15.3,45.9c0.3-0.3,0.4-0.5,0.4-0.9
		c0-0.4-0.2-0.6-0.6-0.6H9.6v1.3h3.9l-3.5,2.7c-0.2,0.2-0.3,0.4-0.3,0.7c0,0.4,0.2,0.7,0.5,0.7h5.6v-1.3h-3.9L15.3,45.9z"/>
	<path class="st0" d="M15.3,5.3c0.3-0.3,0.4-0.5,0.4-0.9c0-0.4-0.2-0.6-0.6-0.6H9.6v1.3h3.9L9.9,7.9C9.6,8.1,9.6,8.3,9.6,8.6
		c0,0.4,0.2,0.7,0.5,0.7h5.6V7.9h-3.9L15.3,5.3z M10.6,13c0-1.1,0.8-1.9,2-1.9c1.1,0,2,0.7,2,1.9v0.2c0,1.1-0.8,1.9-2,1.9
		c-1.2,0-2-0.8-2-1.9V13z M15.6,13c0-1.9-1.4-3.2-3.1-3.2c-1.7,0-3,1.3-3,3.2v0.2c0,1.9,1.2,3.2,3,3.2s3.1-1.3,3.1-3.2V13z
		 M15.6,18.4V17H9.6v1.4H15.6z M15.6,21.2c0-1.3-0.8-2.2-1.9-2.2s-1.9,0.9-1.9,2v0.6c0,0.3-0.3,0.6-0.7,0.6c-0.3,0-0.6-0.2-0.6-0.6
		v-2.2H9.6v2.2c0,1.2,0.7,2.1,1.7,2.1c1,0,1.7-0.8,1.7-1.9v-0.5c0-0.6,0.4-1,0.9-1c0.5,0,0.8,0.4,0.8,1v2.3h1.1V21.2z M15.6,25.6
		v-1.4H9.6v1.4H15.6z M15.4,27.5c0.2-0.1,0.3-0.4,0.3-0.7c0-0.4-0.2-0.6-0.5-0.6H9.6v1.4h3.7l-3.7,2.3v1.5L15.4,27.5z"/>
</g>
</svg>
