<?xml version="1.0" encoding="utf-8"?>
<!-- Generator: Adobe Illustrator 27.0.1, SVG Export Plug-In . SVG Version: 6.00 Build 0)  -->
<svg version="1.1" id="Layer_1" xmlns="http://www.w3.org/2000/svg" xmlns:xlink="http://www.w3.org/1999/xlink" x="0px" y="0px"
	 viewBox="0 0 146 53" style="enable-background:new 0 0 146 53;" xml:space="preserve">
<style type="text/css">
	.st0{fill:#FFFFFF;}
	.st1{fill:#E2001C;}
	.st2{fill:#FAD800;}
</style>
<rect x="-0.9" width="147.4" height="53"/>
<g>
	<g>
		<g>
			<path class="st0" d="M142.4,33.8c0-0.1,0-0.3-0.1-0.4c-0.7-3-3.9-5.2-6.4-6.5c-1.2-0.6-2.4-1.1-3.2-2.1c-0.7-0.9-1.2-2.5-0.3-3.4
				c0.8-1,2.7-1.1,3.9-1.1h1.7c0,0,0-3.2,0-3.2c0-0.1-2.1-0.3-2.2-0.3c-1.6-0.1-3.2,0.1-4.6,0.6c-3.8,1.4-5,6.1-2.9,9.5
				c0,0,0,0.1,0.1,0.1c1,1.5,2.6,2.6,4.2,3.5c1.3,0.8,3.5,1.5,4.4,2.8c0.2,0.3,0.4,0.8,0.4,1.2c0.2,1.8-0.7,3.2-2.5,3.6
				c-2.4,0.6-4.9-0.2-7.2-1c-0.1-0.1-0.4-0.2-0.7-0.4c0.7-2.4,0.4-5.1-1.3-6.9c-0.5-0.5-1.1-1-1.8-1.2c0.1,0.1,0.9-1,0.9-1
				c0.6-0.9,1.2-1.8,1.4-2.9c0.7-3.3-2.3-6.9-5.7-6.9l-9.8-0.1v9.5h-2.1V26c0-4.9-4-8.9-8.9-8.9h-0.5c-4.9,0-8.9,4-8.9,8.9v1.1h-2.4
				c0-1.9,0-3.8,0-5.7c0-1.4,0-2.9,0-4.3h-9.9v4.1h5c0,0,0,13.3,0,13.3c0,5.2-6.8,4-10,3.3c0.1,0,0,3.6,0,4c0,0.3,3.6,0.5,3.8,0.5
				c2.6,0.1,5.4,0.2,7.7-1.3c3.4-2.3,3.5-5.7,3.5-9.3c0-0.2,0-0.3,0-0.5h2.4V34c0,4.9,4,8.9,8.9,8.9h0.5c4.9,0,8.9-4,8.9-8.9v-2.9
				h2.1v11c1.7,0,3.5,0,5.2,0c3,0,6.5,0.1,8.8-1.9c0.5,0.4,1.1,0.7,1.2,0.7c3.9,1.9,10,2.4,13.6-0.1
				C141.8,39.3,142.9,36.6,142.4,33.8z M103.6,34.6c0,2.3-1.9,4.3-4.3,4.3h-0.1c-2.3,0-4.3-1.9-4.3-4.3v-9.2c0-2.3,1.9-4.3,4.3-4.3
				h0.1c2.3,0,4.3,1.9,4.3,4.3V34.6z M115.6,21.4h2.8c1.6,0,2.8,1.3,2.8,2.8v0c0,1.6-1.3,2.8-2.8,2.8h-2.8V21.4z M118.7,38.3h-3.1
				v-7.2h3.1c2,0,3.6,1.6,3.6,3.6C122.2,36.7,120.6,38.3,118.7,38.3z"/>
		</g>
	</g>
	<circle class="st0" cx="85.3" cy="13.5" r="2.7"/>
</g>
<g>
	<path class="st0" d="M36,46.4c1.2,1.8,2.1,2.7,3.4,2.7c1.4,0,2-1.4,2-4.2V4.5h-5.1v30.6L21.1,6.8c-0.9-1.8-1.8-2.3-2.9-2.3
		c-1.6,0-2.6,1.5-2.6,3.8v40.3h5.2V18.1L36,46.4z"/>
	<path class="st1" d="M56.6,46.7c0.7,1.6,1.9,2.3,3.1,2.3c1.4,0,2.3-1.5,2.3-3.8V4.5h-5.3v29.8L43.3,4.5h-6.4L56.6,46.7z"/>
	<polygon class="st2" points="43.2,4.5 56.5,4.5 56.5,37.1 	"/>
	<path class="st2" d="M13.7,36.2c0.2-0.1,0.3-0.4,0.3-0.7c0-0.3-0.2-0.6-0.5-0.6h-3.1l3.3-2.2c0.2-0.1,0.3-0.4,0.3-0.7
		c0-0.3-0.2-0.6-0.5-0.6H8.2v1.3h3.5c-1.2,0.7-2,1.3-3.1,2c-0.3,0.2-0.3,0.4-0.3,0.7c0,0.4,0.3,0.8,0.7,0.8h2.8l-3.5,2.2v1.5
		L13.7,36.2z M13,39.9v1.9h-1.4v-1.6h-1v1.6H9.2v-1.8h-1V43H14v-3.2H13z M13.6,45c0.3-0.3,0.4-0.5,0.4-0.8c0-0.3-0.2-0.5-0.6-0.5
		H8.2v1.3h3.7l-3.4,2.6c-0.2,0.2-0.3,0.4-0.3,0.7c0,0.4,0.2,0.6,0.5,0.6H14v-1.3h-3.7L13.6,45z"/>
	<path class="st0" d="M13.6,6.4c0.3-0.3,0.4-0.5,0.4-0.8c0-0.3-0.2-0.5-0.6-0.5H8.2v1.3h3.7L8.5,8.9C8.3,9,8.2,9.2,8.2,9.5
		c0,0.4,0.2,0.6,0.5,0.6H14V8.9h-3.7L13.6,6.4z M9.2,13.7c0-1,0.8-1.8,1.9-1.8c1.1,0,1.9,0.7,1.9,1.8v0.2c0,1-0.8,1.8-1.9,1.8
		c-1.1,0-1.9-0.7-1.9-1.8V13.7z M14,13.7c0-1.8-1.3-3.1-3-3.1c-1.6,0-2.8,1.2-2.8,3.1v0.2c0,1.8,1.2,3.1,2.8,3.1s3-1.3,3-3.1V13.7z
		 M14,18.8v-1.3H8.2v1.3H14z M14,21.5c0-1.3-0.7-2.1-1.8-2.1s-1.8,0.8-1.8,1.9v0.6c0,0.3-0.3,0.5-0.6,0.5c-0.3,0-0.6-0.2-0.6-0.5
		v-2.1h-1v2.1c0,1.2,0.7,2,1.6,2c0.9,0,1.6-0.8,1.6-1.8v-0.5c0-0.5,0.3-0.9,0.8-0.9S13,21,13,21.5v2.2h1V21.5z M14,25.6v-1.3H8.2
		v1.3H14z M13.7,27.5c0.2-0.1,0.3-0.4,0.3-0.7c0-0.3-0.2-0.6-0.5-0.6H8.2v1.3h3.5l-3.5,2.2v1.4L13.7,27.5z"/>
</g>
</svg>
