<?xml version="1.0" encoding="utf-8"?>
<!-- Generator: Adobe Illustrator 27.0.1, SVG Export Plug-In . SVG Version: 6.00 Build 0)  -->
<svg version="1.1" id="Layer_1" xmlns="http://www.w3.org/2000/svg" xmlns:xlink="http://www.w3.org/1999/xlink" x="0px" y="0px"
	 viewBox="0 0 22 22" style="enable-background:new 0 0 22 22;" xml:space="preserve">
<style type="text/css">
	.st0{fill:#FFFFFF;}
	.st1{fill:#E2001C;}
	.st2{fill:#FAD800;}
</style>
<g>
	<rect width="22" height="22"/>
	<g>
		<path class="st0" d="M9.8,19.6c0.5,0.8,0.9,1.2,1.5,1.2c0.6,0,0.9-0.6,0.9-1.9V1.2H9.9v13.5L3.2,2.2c-0.4-0.8-0.8-1-1.3-1
			c-0.7,0-1.1,0.7-1.1,1.7v17.7h2.3V7.1L9.8,19.6z"/>
		<path class="st1" d="M18.8,19.7c0.3,0.7,0.8,1,1.3,1c0.6,0,1-0.6,1-1.7V1.2h-2.3v13.1L13,1.2h-2.8L18.8,19.7z"/>
		<polygon class="st2" points="13,1.2 18.8,1.2 18.8,15.5 		"/>
	</g>
</g>
</svg>
